<svg xmlns="http://www.w3.org/2000/svg" width="512" height="512" overflow="visible" xmlns:v="https://vecta.io/nano"><path d="M306.752 423.752h-19.173l.054-.003-.095.003h-.351c-2.524-.044-15.011-1.122-15.011-18.305v4.804l-1.331-79.547c2.162-11.129 12.73-15.149 12.73-15.149l34.576-30.103c4.068-3.254-.814-10.578-.814-10.578-4.879-5.693-12.203-2.034-12.203-2.034s-9.355 8.135-15.457 11.392c-13.656 7.284-19.041-10.463-19.832-13.413l-2.142-127.941c0-9.548-2.858-17.288-12.406-17.288s-12.406 7.74-12.406 17.288l-1.311 78.321.091-13.849s-1.808 22.17-16.68 14.237c-6.102-3.254-15.457-11.392-15.457-11.392s-7.321-3.659-12.203 2.034c0 0-4.882 7.321-.814 10.575l34.576 30.099s7.828 3.936 9.744 12.558l-1.28 76.581c-2.041 5.892-6.862 14.308-17.014 8.896-6.102-3.257-15.457-11.392-15.457-11.392s-7.321-3.659-12.203 2.034c0 0-4.882 7.321-.814 10.578l34.576 30.099s8.257 4.162 9.977 15.697l-.236 14.088c-3.483 11.7-16.646 11.703-16.646 11.703h-18.714c-7.412 0-13.423 6.01-13.423 13.426s6.01 13.423 13.423 13.423h103.727c7.412 0 13.423-6.01 13.423-13.423a13.42 13.42 0 0 0-13.423-13.419z" fill="#404a46"/><path d="M249.392 62.169c-14.521 1.987-35.167 10.514-51.154 26.275-18.271 18.014-17.065 33.876-17.065 33.876 0 14.072 9.139 19.342 15.453 20.626 2.993.612 12.227 0 12.227 0s14.778.392 14.778-15.528c0 0 0-20.845 29.951-20.845 0 0 36.765-5.308 36.765 33.359v48.519s-1.892 14.781 15.166 14.781c0 0 20.535.946 27.292 0 9.321-1.301 23.194-7.365 23.194-27.352 0 0 2.824-54.867-26.494-82.088-33.809-31.38-60.506-34.302-80.111-31.623zm-59.187 129.508h13.828s10.335-2.253 10.335-13.639c0-6.058-16.835-23.998-52.999-19.69-14.629 1.743-44.198 13.936-49.076 47.37-2.345 16.058 5.433 46.042 32.285 56.735h46.032c2.399-.068 5.615-3.098 5.696-7.73.044-2.487-1.622-7.375-6.102-8.541-5.429-1.416-15.46-6.102-15.866-25.626v-6.507s-.409-17.899 15.866-22.373zm-5.933 187.421c-5.605-1.46-15.957-6.298-16.379-26.45v-6.716s-.419-18.47 16.379-23.089h14.271s10.669-2.324 10.669-14.078c0-6.254-17.376-24.765-54.698-20.325-15.102 1.797-45.62 14.386-50.657 48.894-2.416 16.572 5.612 47.522 33.326 58.556h47.509c2.476-.071 5.798-3.196 5.875-7.977.047-2.564-1.672-7.612-6.294-8.815zM357.481 220.87c-37.322-4.443-54.698 14.072-54.698 20.322 0 11.754 10.669 14.078 10.669 14.078h14.271c16.795 4.615 16.379 23.089 16.379 23.089v6.716c-.422 20.156-10.774 24.991-16.379 26.45-4.622 1.206-6.341 6.25-6.294 8.815.078 4.781 3.399 7.906 5.875 7.977 15.115.419 47.509 0 47.509 0 27.714-11.038 35.741-41.985 33.326-58.56-5.041-34.501-35.559-47.09-50.657-48.887z" fill="#1c9941"/></svg>