<svg xmlns="http://www.w3.org/2000/svg" width="512" height="512" style="overflow: visible;" viewBox="0 0 512 512" data-svgdocument="" id="_gF5iky7zhpYWQa0iTxeUw" class="fl-svgdocument" x="0" y="0" data-bbox="48 195.18700671434135 386.46850997657134 121.62598657131724"><rect data-uid="o_f0d2474mi_4" data-fl-background="" x="0" y="0" width="512" height="512" fill="#e6f5e5"></rect><defs transform="matrix(0.7944615483283997, 0, 0, 0.7944615483283997, -40.93521499633789, 187.25025939941406)" data-uid="o_f0d2474mi_5"></defs><g transform="matrix(0.8842642903327942, 0, 0, 0.8842642903327942, 43.577837017509125, 32.5721809912105)" data-uid="o_f0d2474mi_6"><path d="M59.888,107.756h-5.675l0.016-0.001c0,0-0.012,0-0.028,0.001h-0.104c-0.747-0.013-4.443-0.332-4.443-5.418v1.422   L49.26,80.215c0.64-3.294,3.768-4.484,3.768-4.484l10.234-8.91c1.204-0.963-0.241-3.131-0.241-3.131   c-1.444-1.685-3.612-0.602-3.612-0.602s-2.769,2.408-4.575,3.372c-4.042,2.156-5.636-3.097-5.87-3.97L48.33,24.621   c0-2.826-0.846-5.117-3.672-5.117c-2.826,0-3.672,2.291-3.672,5.117l-0.388,23.182l0.027-4.099c0,0-0.535,6.562-4.937,4.214   c-1.806-0.963-4.575-3.372-4.575-3.372s-2.167-1.083-3.612,0.602c0,0-1.445,2.167-0.241,3.13l10.234,8.909   c0,0,2.317,1.165,2.884,3.717l-0.379,22.667c-0.604,1.744-2.031,4.235-5.036,2.633c-1.806-0.964-4.575-3.372-4.575-3.372   s-2.167-1.083-3.612,0.602c0,0-1.445,2.167-0.241,3.131l10.234,8.909c0,0,2.444,1.232,2.953,4.646l-0.07,4.17   c-1.031,3.463-4.927,3.464-4.927,3.464h-5.539c-2.194,0-3.973,1.779-3.973,3.974s1.779,3.973,3.973,3.973h30.702   c2.194,0,3.973-1.779,3.973-3.973S62.083,107.756,59.888,107.756z" stroke="none" fill="#404a46" transform="matrix(1.183720350265503, 0, 0, 1.183720350265503, 22.630590438842773, 183.893798828125)" stroke-width="1" data-uid="o_f0d2474mi_7"></path><path d="M42.454,0.228c-4.298,0.588-10.409,3.112-15.141,7.777c-5.408,5.332-5.051,10.027-5.051,10.027   c0,4.165,2.705,5.725,4.574,6.105c0.886,0.181,3.619,0,3.619,0s4.374,0.116,4.374-4.596c0,0,0-6.17,8.865-6.17   c0,0,10.882-1.571,10.882,9.874v14.361c0,0-0.56,4.375,4.489,4.375c0,0,6.078,0.28,8.078,0c2.759-0.385,6.865-2.18,6.865-8.096   c0,0,0.836-16.24-7.842-24.297C56.159,0.3,48.257-0.565,42.454,0.228z" stroke="none" fill="#1c9941" transform="matrix(1.183720350265503, 0, 0, 1.183720350265503, 23.170488357543945, 184.49000549316406)" stroke-width="1" data-uid="o_f0d2474mi_8"></path><path d="M25.037,39.196h4.093c0,0,3.059-0.667,3.059-4.037c0-1.793-4.983-7.103-15.687-5.828   c-4.33,0.516-13.082,4.125-14.526,14.021c-0.694,4.753,1.608,13.628,9.556,16.793c0,0,9.29,0.121,13.625,0   c0.71-0.02,1.662-0.917,1.686-2.288c0.013-0.736-0.48-2.183-1.806-2.528c-1.607-0.419-4.576-1.806-4.696-7.585v-1.926   C20.341,45.818,20.22,40.52,25.037,39.196z" stroke="none" fill="#1c9941" transform="matrix(1.183720350265503, 0, 0, 1.183720350265503, 23.050065994262695, 183.7379608154297)" stroke-width="1" data-uid="o_f0d2474mi_9"></path><path d="M23.922,94.392c-1.659-0.432-4.723-1.864-4.848-7.829v-1.988c0,0-0.124-5.467,4.848-6.834h4.224   c0,0,3.158-0.688,3.158-4.167c0-1.851-5.143-7.33-16.19-6.016C10.644,68.09,1.611,71.816,0.12,82.03   c-0.715,4.905,1.661,14.066,9.864,17.332c0,0,9.588,0.124,14.062,0c0.733-0.021,1.716-0.946,1.739-2.361   C25.799,96.242,25.29,94.748,23.922,94.392z" stroke="none" fill="#1c9941" transform="matrix(1.183720350265503, 0, 0, 1.183720350265503, 22.291282653808594, 184.0677490234375)" stroke-width="1" data-uid="o_f0d2474mi_10"></path><path d="M74.887,47.383c-11.047-1.315-16.19,4.165-16.19,6.015c0,3.479,3.158,4.167,3.158,4.167h4.224   c4.971,1.366,4.848,6.834,4.848,6.834v1.988c-0.125,5.966-3.189,7.397-4.848,7.829c-1.368,0.357-1.877,1.85-1.863,2.609   c0.023,1.415,1.006,2.34,1.739,2.361c4.474,0.124,14.062,0,14.062,0c8.203-3.267,10.579-12.427,9.864-17.333   C88.389,51.641,79.356,47.915,74.887,47.383z" stroke="none" fill="#1c9941" transform="matrix(1.183720350265503, 0, 0, 1.183720350265503, 22.649574279785156, 184.27528381347656)" stroke-width="1" data-uid="o_f0d2474mi_11"></path></g><path id="_VeJDs572SUOh1EKprQBTg" fill="#404a46" transform="matrix(0.6504735946655273, 0, 0, 0.6504735946655273, 170.83154681059995, 278.2787206172943)" text="Voxelize" text-anchor="start" font-size="100" letter-spacing="0" side="left" offset="0" dx="0" dy="0" space="preserve" href="" font-family="Coiny" font-scale="contain" x="0" y="0" data-fl-textpath="" data-uid="o_f0d2474mi_12" d="M 37.2-16.3L 37.2-16.3Q 42.3-16.3  43.85-18.9Q 45.4-21.5  45.4-27.8L 45.4-27.8Q 45.4-30.8  45.45-41.65Q 45.5-52.5  45.5-58.2L 45.5-58.2Q 45.5-63.5  48.05-65.95Q 50.6-68.4  56.8-68.4L 56.8-68.4Q 62.3-68.4  65-65.65Q 67.7-62.9  68.8-55.65Q 69.9-48.4  69.9-33.6L 69.9-33.6Q 69.9-27.3  68.45-22.1Q 67-16.9  64.45-13.25Q 61.9-9.6  58.7-6.85Q 55.5-4.1  51.8-2.5Q 48.1-0.9  44.5-0.1Q 40.9 0.7  37.4 0.7L 37.4 0.7Q 33.1 0.7  28.75-0.35Q 24.4-1.4  19.95-4Q 15.5-6.6  12.1-10.35Q 8.7-14.1  6.55-20.15Q 4.4-26.2  4.4-33.6L 4.4-33.6Q 4.4-48.4  5.6-55.65Q 6.8-62.9  9.7-65.65Q 12.6-68.4  18.6-68.4L 18.6-68.4Q 24.2-68.4  26.5-65.95Q 28.8-63.5  28.8-58.2L 28.8-58.2Q 28.8-52.4  28.85-41.65Q 28.9-30.9  28.9-27.9L 28.9-27.9Q 28.9-25.3  29.05-23.75Q 29.2-22.2  29.65-20.6Q 30.1-19  31-18.15Q 31.9-17.3  33.4-16.8Q 34.9-16.3  37.2-16.3ZM 111.1-23.7L 111.1-23.7Q 111.1-28.9  109.80000000000001-32.85Q 108.5-36.8  106-36.8L 106-36.8Q 104.30000000000001-36.8  103-34.8Q 101.7-32.8  101.1-29.9Q 100.5-27  100.5-23.7L 100.5-23.7Q 100.5-18.6  101.9-14.75Q 103.30000000000001-10.9  105.9-10.9Q 108.5-10.9  109.80000000000001-14.7Q 111.1-18.5  111.1-23.7ZM 105.9 0.7L 105.9 0.7Q 98.1 0.7  91.85-2.1Q 85.60000000000001-4.9  81.85000000000001-10.5Q 78.10000000000001-16.1  78.10000000000001-23.6L 78.10000000000001-23.6Q 78.10000000000001-35  85.9-41.7Q 93.7-48.4  105.9-48.4Q 118.1-48.4  125.80000000000001-41.7Q 133.5-35  133.5-23.6L 133.5-23.6Q 133.5-12.3  125.65-5.8Q 117.80000000000001 0.7  105.9 0.7ZM 167.5-9.9L 167.5-9.9Q 167.3-9.6  166.20000000000002-8.5Q 165.10000000000002-7.4  164.75-7Q 164.4-6.6  163.35000000000002-5.55Q 162.3-4.5  161.75-4.05Q 161.20000000000002-3.6  160.20000000000002-2.8Q 159.20000000000002-2  158.45000000000002-1.65Q 157.70000000000002-1.3  156.8-0.85Q 155.9-0.4  155-0.2Q 154.10000000000002 0  153.20000000000002 0L 153.20000000000002 0Q 148.8 0  144.8-3.6Q 140.8-7.2  140.8-11.3L 140.8-11.3Q 140.8-12.3  141.65-13.55Q 142.5-14.8  144.15-16.3Q 145.8-17.8  147.05-18.9Q 148.3-20  150.25-21.5Q 152.20000000000002-23  152.60000000000002-23.4L 152.60000000000002-23.4Q 151.8-24  150.3-25.25Q 148.8-26.5  147.8-27.4Q 146.8-28.3  145.5-29.65Q 144.20000000000002-31  143.45000000000002-32.25Q 142.70000000000002-33.5  142.10000000000002-35.1Q 141.5-36.7  141.5-38.4L 141.5-38.4Q 141.5-41.8  144.8-44.7Q 148.10000000000002-47.6  151.60000000000002-47.6L 151.60000000000002-47.6Q 153.5-47.6  155.3-46.8Q 157.10000000000002-46  158.75-44.55Q 160.4-43.1  161.75-41.65Q 163.10000000000002-40.2  164.75-38.25Q 166.4-36.3  167.5-35.3L 167.5-35.3Q 168.60000000000002-36.3  170.9-39Q 173.20000000000002-41.7  174.70000000000002-43.25Q 176.20000000000002-44.8  178.60000000000002-46.2Q 181-47.6  183.3-47.6L 183.3-47.6Q 184.70000000000002-47.6  186.20000000000002-47.05Q 187.70000000000002-46.5  188.95000000000002-45.55Q 190.20000000000002-44.6  191.25-43.45Q 192.3-42.3  192.85000000000002-40.95Q 193.4-39.6  193.4-38.3L 193.4-38.3Q 193.4-36.6  192.8-34.95Q 192.20000000000002-33.3  190.5-31.35Q 188.8-29.4  188.05-28.55Q 187.3-27.7  184.85000000000002-25.55Q 182.4-23.4  182.4-23.4L 182.4-23.4Q 182.70000000000002-23  184.70000000000002-21.5Q 186.70000000000002-20  187.95000000000002-18.9Q 189.20000000000002-17.8  190.8-16.3Q 192.4-14.8  193.25-13.55Q 194.10000000000002-12.3  194.10000000000002-11.3L 194.10000000000002-11.3Q 194.10000000000002-7.2  190.10000000000002-3.6Q 186.10000000000002 0  181.70000000000002 0L 181.70000000000002 0Q 180.70000000000002 0  179.65-0.3Q 178.60000000000002-0.6  177.75-0.95Q 176.9-1.3  175.8-2.1Q 174.70000000000002-2.9  174.05-3.4Q 173.4-3.9  172.25-5Q 171.10000000000002-6.1  170.65-6.55Q 170.20000000000002-7  169-8.3Q 167.8-9.6  167.5-9.9ZM 228.6 0.6L 228.6 0.6Q 216.4 0.6  208.45-5.7Q 200.5-12  200.5-22.9L 200.5-22.9Q 200.5-34.7  208.35-41.55Q 216.2-48.4  228.6-48.4L 228.6-48.4Q 240.3-48.4  245.75-44.25Q 251.2-40.1  251.2-32.9L 251.2-32.9Q 251.2-31.5  250.85-30.2Q 250.5-28.9  249.75-27.65Q 249-26.4  247.75-25.35Q 246.5-24.3  244.9-23.45Q 243.3-22.6  241.1-22.15Q 238.9-21.7  236.4-21.7L 236.4-21.7L 222.3-21.6Q 223.3-18.4  225.9-16.55Q 228.5-14.7  232.5-14.7L 232.5-14.7Q 236.8-14.7  241.3-15.8L 241.3-15.8Q 243.2-16.3  245.45-17.4Q 247.7-18.5  248.7-18.5L 248.7-18.5Q 250.4-18.5  251.35-17.5Q 252.3-16.5  252.3-15L 252.3-15Q 252.3-13.2  250.7-10.65Q 249.1-8.1  246.25-5.55Q 243.4-3  238.7-1.2Q 234 0.6  228.6 0.6ZM 221.8-28L 221.8-28Q 228.7-28.1  229.3-28.1L 229.3-28.1Q 230.8-28.1  231.5-29.9L 231.5-29.9Q 232-31.2  232-33.5L 232-33.5Q 232-39.8  228.2-39.8L 228.2-39.8Q 226.8-39.8  225.45-38.3Q 224.1-36.8  223.1-34.05Q 222.1-31.3  221.8-28ZM 282.6-57.4L 282.6-15.1Q 282.6-7  279.9-3.5Q 277.2 0  271.6 0L 271.6 0Q 266 0  263.4-3.15Q 260.8-6.3  260.8-14.3L 260.8-14.3L 260.6-56.5Q 260.6-59.1  261.15-61.1Q 261.7-63.1  262.65-64.5Q 263.6-65.9  265-66.8Q 266.4-67.7  268.05-68.1Q 269.7-68.5  271.6-68.5L 271.6-68.5Q 277.1-68.5  279.85-66.3Q 282.6-64.1  282.6-57.4L 282.6-57.4ZM 291.5-61.6L 291.5-61.6Q 291.5-64.9  294.34999999999997-67.05Q 297.2-69.2  302.4-69.2L 302.4-69.2Q 313.3-69.2  313.3-61.6L 313.3-61.6Q 313.3-57.4  310.55-55.7Q 307.8-54  302.4-54L 302.4-54Q 297.7-54  294.59999999999997-55.8Q 291.5-57.6  291.5-61.6ZM 313.2-36.7L 313.2-10.7Q 313.2-4.7  310.7-2.35Q 308.2 0  301.9 0L 301.9 0Q 296 0  293.84999999999997-2.75Q 291.7-5.5  291.7-11.8L 291.7-11.8L 291.7-36.4Q 291.7-41.5  294.45-44.6Q 297.2-47.7  301.8-47.7L 301.8-47.7Q 307.2-47.7  310.2-45.35Q 313.2-43  313.2-36.7L 313.2-36.7ZM 349.59999999999997-12.5L 362.9-12.6Q 365.8-12.6  367.4-11.8Q 369-11  369.59999999999997-9.5Q 370.2-8  370.2-5.4L 370.2-5.4Q 370.2-2.1  367.95-1.05Q 365.7 0  360 0L 360 0L 330.5 0Q 327.09999999999997 0  324.25-2.35Q 321.4-4.7  321.4-8.5L 321.4-8.5Q 321.4-12.7  322.5-15.05Q 323.59999999999997-17.4  327.5-21.3L 327.5-21.3L 340.59999999999997-35.1L 333.3-35.1Q 327.9-35.1  325.5-36.6Q 323.09999999999997-38.1  323.09999999999997-41.5L 323.09999999999997-41.5Q 323.09999999999997-45.2  324.8-46.45Q 326.5-47.7  331.9-47.7L 331.9-47.7L 362.3-47.7Q 366-47.7  368.15-45.65Q 370.3-43.6  370.3-40L 370.3-40Q 370.3-36.6  369.4-34.8Q 368.5-33  364.7-28.7L 364.7-28.7L 349.59999999999997-12.5ZM 404.3 0.6L 404.3 0.6Q 392.09999999999997 0.6  384.15-5.7Q 376.2-12  376.2-22.9L 376.2-22.9Q 376.2-34.7  384.05-41.55Q 391.9-48.4  404.3-48.4L 404.3-48.4Q 416-48.4  421.45-44.25Q 426.9-40.1  426.9-32.9L 426.9-32.9Q 426.9-31.5  426.55-30.2Q 426.2-28.9  425.45-27.65Q 424.7-26.4  423.45-25.35Q 422.2-24.3  420.59999999999997-23.45Q 419-22.6  416.8-22.15Q 414.59999999999997-21.7  412.09999999999997-21.7L 412.09999999999997-21.7L 398-21.6Q 399-18.4  401.59999999999997-16.55Q 404.2-14.7  408.2-14.7L 408.2-14.7Q 412.5-14.7  417-15.8L 417-15.8Q 418.9-16.3  421.15-17.4Q 423.4-18.5  424.4-18.5L 424.4-18.5Q 426.09999999999997-18.5  427.05-17.5Q 428-16.5  428-15L 428-15Q 428-13.2  426.4-10.65Q 424.8-8.1  421.95-5.55Q 419.09999999999997-3  414.4-1.2Q 409.7 0.6  404.3 0.6ZM 397.5-28L 397.5-28Q 404.4-28.1  405-28.1L 405-28.1Q 406.5-28.1  407.2-29.9L 407.2-29.9Q 407.7-31.2  407.7-33.5L 407.7-33.5Q 407.7-39.8  403.9-39.8L 403.9-39.8Q 402.5-39.8  401.15-38.3Q 399.8-36.8  398.8-34.05Q 397.8-31.3  397.5-28Z"></path></svg>