<?xml version="1.0" encoding="utf-8"?>
<svg width="512" height="512" xmlns="http://www.w3.org/2000/svg">
  <path style="fill:#1e9942;stroke:none" d="M240 64L240 72L224 72L224 80L208 80L208 88L200 88L200 96L192 96L192 112L184 112L184 136L192 136L192 144L224 144L224 128L232 128L232 112L280 112L280 120L288 120L288 128L296 128L296 208L344 208L344 200L352 200L352 192L360 192L360 144L352 144L352 120L344 120L344 104L336 104L336 96L328 96L328 88L320 88L320 80L304 80L304 72L288 72L288 64L240 64z"/>
  <path style="fill:#414b47;stroke:none" d="M248 128L248 216L240 216L240 224L224 224L224 216L200 216L200 232L208 232L208 240L224 240L224 248L232 248L232 256L240 256L240 264L248 264L248 304L240 304L240 352L216 352L216 344L200 344L200 360L208 360L208 368L216 368L216 376L224 376L224 384L232 384L232 392L240 392L240 424L200 424L200 432L192 432L192 448L200 448L200 456L320 456L320 432L312 432L312 424L280 424L280 416L272 416L272 328L280 328L280 320L288 320L288 312L296 312L296 304L312 304L312 296L320 296L320 272L312 272L312 280L296 280L296 288L280 288L280 280L272 280L272 136L264 136L264 128L248 128z"/>
  <path style="fill:#1e9942;stroke:none" d="M152 160L152 168L136 168L136 176L128 176L128 184L120 184L120 208L112 208L112 224L120 224L120 248L128 248L128 256L136 256L136 264L200 264L200 248L184 248L184 240L176 240L176 208L184 208L184 200L192 200L192 192L216 192L216 176L208 176L208 168L192 168L192 160L152 160z"/>
  <path style="fill:#1e9942;stroke:none" d="M328 224L328 232L312 232L312 240L304 240L304 248L312 248L312 256L336 256L336 264L344 264L344 312L328 312L328 328L392 328L392 320L400 320L400 312L408 312L408 256L400 256L400 240L392 240L392 232L376 232L376 224L328 224z"/>
  <path style="fill:#1e9942;stroke:none" d="M160 288L160 296L136 296L136 304L128 304L128 312L120 312L120 320L112 320L112 336L104 336L104 360L112 360L112 376L120 376L120 392L136 392L136 400L192 400L192 384L184 384L184 376L176 376L176 368L168 368L168 344L176 344L176 328L208 328L208 320L216 320L216 312L208 312L208 304L200 304L200 296L176 296L176 288L160 288z"/>
</svg>